<mxfile host="app.diagrams.net" modified="2023-10-25T16:59:34.691Z" agent="Mozilla/5.0 (Windows NT 10.0; Win64; x64) AppleWebKit/537.36 (KHTML, like Gecko) Chrome/118.0.0.0 Safari/537.36" etag="yQQPOScaNH-lkPvbsyzD" version="22.0.8" type="github">
  <diagram id="C5RBs43oDa-KdzZeNtuy" name="Page-1">
    <mxGraphModel dx="1050" dy="566" grid="1" gridSize="10" guides="1" tooltips="1" connect="1" arrows="1" fold="1" page="1" pageScale="1" pageWidth="827" pageHeight="1169" math="0" shadow="0">
      <root>
        <mxCell id="WIyWlLk6GJQsqaUBKTNV-0" />
        <mxCell id="WIyWlLk6GJQsqaUBKTNV-1" parent="WIyWlLk6GJQsqaUBKTNV-0" />
        <mxCell id="pjWq276cZmGTayt6hApS-2" value="" style="edgeStyle=orthogonalEdgeStyle;rounded=0;orthogonalLoop=1;jettySize=auto;html=1;" edge="1" parent="WIyWlLk6GJQsqaUBKTNV-1" source="pjWq276cZmGTayt6hApS-0" target="pjWq276cZmGTayt6hApS-1">
          <mxGeometry relative="1" as="geometry" />
        </mxCell>
        <mxCell id="pjWq276cZmGTayt6hApS-0" value="start" style="strokeWidth=2;html=1;shape=mxgraph.flowchart.start_1;whiteSpace=wrap;" vertex="1" parent="WIyWlLk6GJQsqaUBKTNV-1">
          <mxGeometry x="364" y="80" width="100" height="60" as="geometry" />
        </mxCell>
        <mxCell id="pjWq276cZmGTayt6hApS-4" value="" style="edgeStyle=orthogonalEdgeStyle;rounded=0;orthogonalLoop=1;jettySize=auto;html=1;" edge="1" parent="WIyWlLk6GJQsqaUBKTNV-1" source="pjWq276cZmGTayt6hApS-1" target="pjWq276cZmGTayt6hApS-3">
          <mxGeometry relative="1" as="geometry" />
        </mxCell>
        <mxCell id="pjWq276cZmGTayt6hApS-1" value="masukan alas" style="shape=parallelogram;perimeter=parallelogramPerimeter;whiteSpace=wrap;html=1;fixedSize=1;strokeWidth=2;" vertex="1" parent="WIyWlLk6GJQsqaUBKTNV-1">
          <mxGeometry x="354" y="180" width="120" height="60" as="geometry" />
        </mxCell>
        <mxCell id="pjWq276cZmGTayt6hApS-6" value="" style="edgeStyle=orthogonalEdgeStyle;rounded=0;orthogonalLoop=1;jettySize=auto;html=1;" edge="1" parent="WIyWlLk6GJQsqaUBKTNV-1" source="pjWq276cZmGTayt6hApS-3" target="pjWq276cZmGTayt6hApS-5">
          <mxGeometry relative="1" as="geometry" />
        </mxCell>
        <mxCell id="pjWq276cZmGTayt6hApS-3" value="masukan tinggi" style="shape=parallelogram;perimeter=parallelogramPerimeter;whiteSpace=wrap;html=1;fixedSize=1;strokeWidth=2;" vertex="1" parent="WIyWlLk6GJQsqaUBKTNV-1">
          <mxGeometry x="354" y="280" width="120" height="60" as="geometry" />
        </mxCell>
        <mxCell id="pjWq276cZmGTayt6hApS-8" value="" style="edgeStyle=orthogonalEdgeStyle;rounded=0;orthogonalLoop=1;jettySize=auto;html=1;" edge="1" parent="WIyWlLk6GJQsqaUBKTNV-1" source="pjWq276cZmGTayt6hApS-5" target="pjWq276cZmGTayt6hApS-7">
          <mxGeometry relative="1" as="geometry" />
        </mxCell>
        <mxCell id="pjWq276cZmGTayt6hApS-5" value="Luas=1/2*(alas*tinggi)" style="whiteSpace=wrap;html=1;strokeWidth=2;" vertex="1" parent="WIyWlLk6GJQsqaUBKTNV-1">
          <mxGeometry x="351" y="380" width="126" height="60" as="geometry" />
        </mxCell>
        <mxCell id="pjWq276cZmGTayt6hApS-10" value="" style="edgeStyle=orthogonalEdgeStyle;rounded=0;orthogonalLoop=1;jettySize=auto;html=1;" edge="1" parent="WIyWlLk6GJQsqaUBKTNV-1" source="pjWq276cZmGTayt6hApS-7" target="pjWq276cZmGTayt6hApS-9">
          <mxGeometry relative="1" as="geometry" />
        </mxCell>
        <mxCell id="pjWq276cZmGTayt6hApS-7" value="tampilkan luas segitiga" style="shape=parallelogram;perimeter=parallelogramPerimeter;whiteSpace=wrap;html=1;fixedSize=1;strokeWidth=2;" vertex="1" parent="WIyWlLk6GJQsqaUBKTNV-1">
          <mxGeometry x="354" y="490" width="120" height="60" as="geometry" />
        </mxCell>
        <mxCell id="pjWq276cZmGTayt6hApS-9" value="finish" style="strokeWidth=2;html=1;shape=mxgraph.flowchart.start_1;whiteSpace=wrap;" vertex="1" parent="WIyWlLk6GJQsqaUBKTNV-1">
          <mxGeometry x="364" y="585" width="100" height="60" as="geometry" />
        </mxCell>
      </root>
    </mxGraphModel>
  </diagram>
</mxfile>
